<svg width="84" height="18" viewBox="0 0 84 18" fill="none" xmlns="http://www.w3.org/2000/svg">
<path d="M2.49022 1.2312L18.088 0.344727L18.7443 17.6613L0 17.3703L0.412772 5.92067L2.49022 1.2312Z" fill="#E03A26"/>
<path d="M32.3058 7.52526V9.96136H26.1682V15.226H34.6607V17.6553H22.4531V0.332031H34.4306V2.76812H26.1682V7.52526H32.3058Z" fill="white"/>
<path d="M48.9321 17.6549H37.9697V0.338379H41.678V15.1985H48.9321V17.6549Z" fill="white"/>
<path d="M65.0035 12.3835C64.1373 15.9902 61.1125 18 57.8238 18C55.8546 18 53.8584 17.4248 52.4712 16.0985C50.9825 14.6977 50.0283 12.4444 50.0283 8.8985C50.0283 5.83308 50.9013 3.51203 52.4441 2.00978C53.8449 0.690226 55.6922 0 57.8644 0C61.2952 0 64.0561 1.65789 64.8073 5.40677L61.0787 5.73834C60.6118 3.6609 59.6915 2.46316 57.8441 2.46316C55.584 2.46316 53.8381 4.25639 53.8381 9.03383C53.8381 13.8113 55.6922 15.5571 57.8035 15.5571C59.9148 15.5571 60.9163 13.8248 61.2343 11.9639L65.0103 12.397L65.0035 12.3835Z" fill="white"/>
<path d="M76.5069 6.53687C76.1077 5.21732 75.7152 3.94514 75.3363 2.40905H75.1468C74.7814 3.93161 74.3821 5.25793 74.0032 6.53687L72.7851 10.6647H77.725L76.5069 6.53687ZM71.9866 13.094L70.64 17.6617H66.6069L72.7445 0.338379H77.7723L83.9167 17.6617H79.8904L78.5167 13.094H71.9866Z" fill="white"/>
</svg>
